<?xml version="1.0" encoding="utf-8" standalone="no"?>
<!DOCTYPE svg PUBLIC "-//W3C//DTD SVG 1.1//EN"
  "http://www.w3.org/Graphics/SVG/1.1/DTD/svg11.dtd">
<svg xmlns:xlink="http://www.w3.org/1999/xlink" width="576pt" height="1864.8pt" viewBox="0 0 576 1864.8" xmlns="http://www.w3.org/2000/svg" version="1.1">
 <metadata>
  <rdf:RDF xmlns:dc="http://purl.org/dc/elements/1.1/" xmlns:cc="http://creativecommons.org/ns#" xmlns:rdf="http://www.w3.org/1999/02/22-rdf-syntax-ns#">
   <cc:Work>
    <dc:type rdf:resource="http://purl.org/dc/dcmitype/StillImage"/>
    <dc:date>2024-04-16T20:52:01.784755</dc:date>
    <dc:format>image/svg+xml</dc:format>
    <dc:creator>
     <cc:Agent>
      <dc:title>Matplotlib v3.7.1, https://matplotlib.org/</dc:title>
     </cc:Agent>
    </dc:creator>
   </cc:Work>
  </rdf:RDF>
 </metadata>
 <defs>
  <style type="text/css">*{stroke-linejoin: round; stroke-linecap: butt}</style>
 </defs>
 <g id="figure_1">
  <g id="patch_1">
   <path d="M 0 1864.8 
L 576 1864.8 
L 576 0 
L 0 0 
z
" style="fill: #ffffff"/>
  </g>
  <g id="axes_1">
   <g id="patch_2">
    <path d="M 108.675 1820 
L 565.2 1820 
L 565.2 10.8 
L 108.675 10.8 
z
" style="fill: #ffffff"/>
   </g>
   <g id="line2d_1">
    <path d="M 108.675 1820 
L 108.675 10.8 
" clip-path="url(#pc776b6ba99)" style="fill: none; stroke: #999999; stroke-width: 1.5; stroke-linecap: square"/>
   </g>
   <g id="patch_3">
    <path d="M 108.675 1801.032581 
L 109.337868 1801.032581 
L 109.337868 1780.606129 
L 108.675 1780.606129 
z
" clip-path="url(#pc776b6ba99)" style="fill: #008bfb"/>
   </g>
   <g id="patch_4">
    <path d="M 108.675 1771.851935 
L 109.778955 1771.851935 
L 109.778955 1751.425484 
L 108.675 1751.425484 
z
" clip-path="url(#pc776b6ba99)" style="fill: #008bfb"/>
   </g>
   <g id="patch_5">
    <path d="M 108.675 1742.67129 
L 110.025918 1742.67129 
L 110.025918 1722.244839 
L 108.675 1722.244839 
z
" clip-path="url(#pc776b6ba99)" style="fill: #008bfb"/>
   </g>
   <g id="patch_6">
    <path d="M 108.675 1713.490645 
L 110.249513 1713.490645 
L 110.249513 1693.064194 
L 108.675 1693.064194 
z
" clip-path="url(#pc776b6ba99)" style="fill: #008bfb"/>
   </g>
   <g id="patch_7">
    <path d="M 108.675 1684.31 
L 110.331524 1684.31 
L 110.331524 1663.883548 
L 108.675 1663.883548 
z
" clip-path="url(#pc776b6ba99)" style="fill: #008bfb"/>
   </g>
   <g id="patch_8">
    <path d="M 108.675 1655.129355 
L 110.364583 1655.129355 
L 110.364583 1634.702903 
L 108.675 1634.702903 
z
" clip-path="url(#pc776b6ba99)" style="fill: #008bfb"/>
   </g>
   <g id="patch_9">
    <path d="M 108.675 1625.94871 
L 110.53677 1625.94871 
L 110.53677 1605.522258 
L 108.675 1605.522258 
z
" clip-path="url(#pc776b6ba99)" style="fill: #008bfb"/>
   </g>
   <g id="patch_10">
    <path d="M 108.675 1596.768065 
L 110.621845 1596.768065 
L 110.621845 1576.341613 
L 108.675 1576.341613 
z
" clip-path="url(#pc776b6ba99)" style="fill: #008bfb"/>
   </g>
   <g id="patch_11">
    <path d="M 108.675 1567.587419 
L 110.750111 1567.587419 
L 110.750111 1547.160968 
L 108.675 1547.160968 
z
" clip-path="url(#pc776b6ba99)" style="fill: #008bfb"/>
   </g>
   <g id="patch_12">
    <path d="M 108.675 1538.406774 
L 110.782406 1538.406774 
L 110.782406 1517.980323 
L 108.675 1517.980323 
z
" clip-path="url(#pc776b6ba99)" style="fill: #008bfb"/>
   </g>
   <g id="patch_13">
    <path d="M 108.675 1509.226129 
L 110.793312 1509.226129 
L 110.793312 1488.799677 
L 108.675 1488.799677 
z
" clip-path="url(#pc776b6ba99)" style="fill: #008bfb"/>
   </g>
   <g id="patch_14">
    <path d="M 108.675 1480.045484 
L 110.856142 1480.045484 
L 110.856142 1459.619032 
L 108.675 1459.619032 
z
" clip-path="url(#pc776b6ba99)" style="fill: #008bfb"/>
   </g>
   <g id="patch_15">
    <path d="M 108.675 1450.864839 
L 110.860301 1450.864839 
L 110.860301 1430.438387 
L 108.675 1430.438387 
z
" clip-path="url(#pc776b6ba99)" style="fill: #008bfb"/>
   </g>
   <g id="patch_16">
    <path d="M 108.675 1421.684194 
L 111.061393 1421.684194 
L 111.061393 1401.257742 
L 108.675 1401.257742 
z
" clip-path="url(#pc776b6ba99)" style="fill: #008bfb"/>
   </g>
   <g id="patch_17">
    <path d="M 108.675 1392.503548 
L 111.157872 1392.503548 
L 111.157872 1372.077097 
L 108.675 1372.077097 
z
" clip-path="url(#pc776b6ba99)" style="fill: #008bfb"/>
   </g>
   <g id="patch_18">
    <path d="M 108.675 1363.322903 
L 111.238105 1363.322903 
L 111.238105 1342.896452 
L 108.675 1342.896452 
z
" clip-path="url(#pc776b6ba99)" style="fill: #008bfb"/>
   </g>
   <g id="patch_19">
    <path d="M 108.675 1334.142258 
L 111.33142 1334.142258 
L 111.33142 1313.715806 
L 108.675 1313.715806 
z
" clip-path="url(#pc776b6ba99)" style="fill: #008bfb"/>
   </g>
   <g id="patch_20">
    <path d="M 108.675 1304.961613 
L 111.355891 1304.961613 
L 111.355891 1284.535161 
L 108.675 1284.535161 
z
" clip-path="url(#pc776b6ba99)" style="fill: #008bfb"/>
   </g>
   <g id="patch_21">
    <path d="M 108.675 1275.780968 
L 111.770252 1275.780968 
L 111.770252 1255.354516 
L 108.675 1255.354516 
z
" clip-path="url(#pc776b6ba99)" style="fill: #008bfb"/>
   </g>
   <g id="patch_22">
    <path d="M 108.675 1246.600323 
L 112.067076 1246.600323 
L 112.067076 1226.173871 
L 108.675 1226.173871 
z
" clip-path="url(#pc776b6ba99)" style="fill: #008bfb"/>
   </g>
   <g id="patch_23">
    <path d="M 108.675 1217.419677 
L 112.188489 1217.419677 
L 112.188489 1196.993226 
L 108.675 1196.993226 
z
" clip-path="url(#pc776b6ba99)" style="fill: #008bfb"/>
   </g>
   <g id="patch_24">
    <path d="M 108.675 1188.239032 
L 112.243514 1188.239032 
L 112.243514 1167.812581 
L 108.675 1167.812581 
z
" clip-path="url(#pc776b6ba99)" style="fill: #008bfb"/>
   </g>
   <g id="patch_25">
    <path d="M 108.675 1159.058387 
L 112.285505 1159.058387 
L 112.285505 1138.631935 
L 108.675 1138.631935 
z
" clip-path="url(#pc776b6ba99)" style="fill: #008bfb"/>
   </g>
   <g id="patch_26">
    <path d="M 108.675 1129.877742 
L 112.377314 1129.877742 
L 112.377314 1109.45129 
L 108.675 1109.45129 
z
" clip-path="url(#pc776b6ba99)" style="fill: #008bfb"/>
   </g>
   <g id="patch_27">
    <path d="M 108.675 1100.697097 
L 112.762751 1100.697097 
L 112.762751 1080.270645 
L 108.675 1080.270645 
z
" clip-path="url(#pc776b6ba99)" style="fill: #008bfb"/>
   </g>
   <g id="patch_28">
    <path d="M 108.675 1071.516452 
L 112.940639 1071.516452 
L 112.940639 1051.09 
L 108.675 1051.09 
z
" clip-path="url(#pc776b6ba99)" style="fill: #008bfb"/>
   </g>
   <g id="patch_29">
    <path d="M 108.675 1042.335806 
L 112.957022 1042.335806 
L 112.957022 1021.909355 
L 108.675 1021.909355 
z
" clip-path="url(#pc776b6ba99)" style="fill: #008bfb"/>
   </g>
   <g id="patch_30">
    <path d="M 108.675 1013.155161 
L 113.184494 1013.155161 
L 113.184494 992.72871 
L 108.675 992.72871 
z
" clip-path="url(#pc776b6ba99)" style="fill: #008bfb"/>
   </g>
   <g id="patch_31">
    <path d="M 108.675 983.974516 
L 113.432434 983.974516 
L 113.432434 963.548065 
L 108.675 963.548065 
z
" clip-path="url(#pc776b6ba99)" style="fill: #008bfb"/>
   </g>
   <g id="patch_32">
    <path d="M 108.675 954.793871 
L 114.278492 954.793871 
L 114.278492 934.367419 
L 108.675 934.367419 
z
" clip-path="url(#pc776b6ba99)" style="fill: #008bfb"/>
   </g>
   <g id="patch_33">
    <path d="M 108.675 925.613226 
L 114.637204 925.613226 
L 114.637204 905.186774 
L 108.675 905.186774 
z
" clip-path="url(#pc776b6ba99)" style="fill: #008bfb"/>
   </g>
   <g id="patch_34">
    <path d="M 108.675 896.432581 
L 114.6543 896.432581 
L 114.6543 876.006129 
L 108.675 876.006129 
z
" clip-path="url(#pc776b6ba99)" style="fill: #008bfb"/>
   </g>
   <g id="patch_35">
    <path d="M 108.675 867.251935 
L 115.084283 867.251935 
L 115.084283 846.825484 
L 108.675 846.825484 
z
" clip-path="url(#pc776b6ba99)" style="fill: #008bfb"/>
   </g>
   <g id="patch_36">
    <path d="M 108.675 838.07129 
L 115.934247 838.07129 
L 115.934247 817.644839 
L 108.675 817.644839 
z
" clip-path="url(#pc776b6ba99)" style="fill: #008bfb"/>
   </g>
   <g id="patch_37">
    <path d="M 108.675 808.890645 
L 116.056517 808.890645 
L 116.056517 788.464194 
L 108.675 788.464194 
z
" clip-path="url(#pc776b6ba99)" style="fill: #008bfb"/>
   </g>
   <g id="patch_38">
    <path d="M 108.675 779.71 
L 117.684633 779.71 
L 117.684633 759.283548 
L 108.675 759.283548 
z
" clip-path="url(#pc776b6ba99)" style="fill: #008bfb"/>
   </g>
   <g id="patch_39">
    <path d="M 108.675 750.529355 
L 117.694771 750.529355 
L 117.694771 730.102903 
L 108.675 730.102903 
z
" clip-path="url(#pc776b6ba99)" style="fill: #008bfb"/>
   </g>
   <g id="patch_40">
    <path d="M 108.675 721.34871 
L 117.752673 721.34871 
L 117.752673 700.922258 
L 108.675 700.922258 
z
" clip-path="url(#pc776b6ba99)" style="fill: #008bfb"/>
   </g>
   <g id="patch_41">
    <path d="M 108.675 692.168065 
L 118.150386 692.168065 
L 118.150386 671.741613 
L 108.675 671.741613 
z
" clip-path="url(#pc776b6ba99)" style="fill: #008bfb"/>
   </g>
   <g id="patch_42">
    <path d="M 108.675 662.987419 
L 118.735816 662.987419 
L 118.735816 642.560968 
L 108.675 642.560968 
z
" clip-path="url(#pc776b6ba99)" style="fill: #008bfb"/>
   </g>
   <g id="patch_43">
    <path d="M 108.675 633.806774 
L 120.401984 633.806774 
L 120.401984 613.380323 
L 108.675 613.380323 
z
" clip-path="url(#pc776b6ba99)" style="fill: #008bfb"/>
   </g>
   <g id="patch_44">
    <path d="M 108.675 604.626129 
L 120.594105 604.626129 
L 120.594105 584.199677 
L 108.675 584.199677 
z
" clip-path="url(#pc776b6ba99)" style="fill: #008bfb"/>
   </g>
   <g id="patch_45">
    <path d="M 108.675 575.445484 
L 120.926962 575.445484 
L 120.926962 555.019032 
L 108.675 555.019032 
z
" clip-path="url(#pc776b6ba99)" style="fill: #008bfb"/>
   </g>
   <g id="patch_46">
    <path d="M 108.675 546.264839 
L 121.272077 546.264839 
L 121.272077 525.838387 
L 108.675 525.838387 
z
" clip-path="url(#pc776b6ba99)" style="fill: #008bfb"/>
   </g>
   <g id="patch_47">
    <path d="M 108.675 517.084194 
L 124.616175 517.084194 
L 124.616175 496.657742 
L 108.675 496.657742 
z
" clip-path="url(#pc776b6ba99)" style="fill: #008bfb"/>
   </g>
   <g id="patch_48">
    <path d="M 108.675 487.903548 
L 125.470901 487.903548 
L 125.470901 467.477097 
L 108.675 467.477097 
z
" clip-path="url(#pc776b6ba99)" style="fill: #008bfb"/>
   </g>
   <g id="patch_49">
    <path d="M 108.675 458.722903 
L 126.08413 458.722903 
L 126.08413 438.296452 
L 108.675 438.296452 
z
" clip-path="url(#pc776b6ba99)" style="fill: #008bfb"/>
   </g>
   <g id="patch_50">
    <path d="M 108.675 429.542258 
L 126.434506 429.542258 
L 126.434506 409.115806 
L 108.675 409.115806 
z
" clip-path="url(#pc776b6ba99)" style="fill: #008bfb"/>
   </g>
   <g id="patch_51">
    <path d="M 108.675 400.361613 
L 129.416747 400.361613 
L 129.416747 379.935161 
L 108.675 379.935161 
z
" clip-path="url(#pc776b6ba99)" style="fill: #008bfb"/>
   </g>
   <g id="patch_52">
    <path d="M 108.675 371.180968 
L 145.387296 371.180968 
L 145.387296 350.754516 
L 108.675 350.754516 
z
" clip-path="url(#pc776b6ba99)" style="fill: #008bfb"/>
   </g>
   <g id="patch_53">
    <path d="M 108.675 342.000323 
L 152.263642 342.000323 
L 152.263642 321.573871 
L 108.675 321.573871 
z
" clip-path="url(#pc776b6ba99)" style="fill: #008bfb"/>
   </g>
   <g id="patch_54">
    <path d="M 108.675 312.819677 
L 156.449469 312.819677 
L 156.449469 292.393226 
L 108.675 292.393226 
z
" clip-path="url(#pc776b6ba99)" style="fill: #008bfb"/>
   </g>
   <g id="patch_55">
    <path d="M 108.675 283.639032 
L 158.768385 283.639032 
L 158.768385 263.212581 
L 108.675 263.212581 
z
" clip-path="url(#pc776b6ba99)" style="fill: #008bfb"/>
   </g>
   <g id="patch_56">
    <path d="M 108.675 254.458387 
L 167.943304 254.458387 
L 167.943304 234.031935 
L 108.675 234.031935 
z
" clip-path="url(#pc776b6ba99)" style="fill: #008bfb"/>
   </g>
   <g id="patch_57">
    <path d="M 108.675 225.277742 
L 169.793461 225.277742 
L 169.793461 204.85129 
L 108.675 204.85129 
z
" clip-path="url(#pc776b6ba99)" style="fill: #008bfb"/>
   </g>
   <g id="patch_58">
    <path d="M 108.675 196.097097 
L 169.841775 196.097097 
L 169.841775 175.670645 
L 108.675 175.670645 
z
" clip-path="url(#pc776b6ba99)" style="fill: #008bfb"/>
   </g>
   <g id="patch_59">
    <path d="M 108.675 166.916452 
L 217.356289 166.916452 
L 217.356289 146.49 
L 108.675 146.49 
z
" clip-path="url(#pc776b6ba99)" style="fill: #008bfb"/>
   </g>
   <g id="patch_60">
    <path d="M 108.675 137.735806 
L 258.879573 137.735806 
L 258.879573 117.309355 
L 108.675 117.309355 
z
" clip-path="url(#pc776b6ba99)" style="fill: #008bfb"/>
   </g>
   <g id="patch_61">
    <path d="M 108.675 108.555161 
L 293.119136 108.555161 
L 293.119136 88.12871 
L 108.675 88.12871 
z
" clip-path="url(#pc776b6ba99)" style="fill: #008bfb"/>
   </g>
   <g id="patch_62">
    <path d="M 108.675 79.374516 
L 322.126087 79.374516 
L 322.126087 58.948065 
L 108.675 58.948065 
z
" clip-path="url(#pc776b6ba99)" style="fill: #008bfb"/>
   </g>
   <g id="patch_63">
    <path d="M 108.675 50.193871 
L 543.460714 50.193871 
L 543.460714 29.767419 
L 108.675 29.767419 
z
" clip-path="url(#pc776b6ba99)" style="fill: #008bfb"/>
   </g>
   <g id="matplotlib.axis_1">
    <g id="xtick_1">
     <g id="line2d_2">
      <defs>
       <path id="m0e839704ac" d="M 0 0 
L 0 3.5 
" style="stroke: #333333; stroke-width: 0.8"/>
      </defs>
      <g>
       <use xlink:href="#m0e839704ac" x="108.675" y="1820" style="fill: #333333; stroke: #333333; stroke-width: 0.8"/>
      </g>
     </g>
     <g id="text_1">
      <!-- 0 -->
      <g style="fill: #333333" transform="translate(105.175625 1835.358281) scale(0.11 -0.11)">
       <defs>
        <path id="DejaVuSans-30" d="M 2034 4250 
Q 1547 4250 1301 3770 
Q 1056 3291 1056 2328 
Q 1056 1369 1301 889 
Q 1547 409 2034 409 
Q 2525 409 2770 889 
Q 3016 1369 3016 2328 
Q 3016 3291 2770 3770 
Q 2525 4250 2034 4250 
z
M 2034 4750 
Q 2819 4750 3233 4129 
Q 3647 3509 3647 2328 
Q 3647 1150 3233 529 
Q 2819 -91 2034 -91 
Q 1250 -91 836 529 
Q 422 1150 422 2328 
Q 422 3509 836 4129 
Q 1250 4750 2034 4750 
z
" transform="scale(0.015625)"/>
       </defs>
       <use xlink:href="#DejaVuSans-30"/>
      </g>
     </g>
    </g>
    <g id="xtick_2">
     <g id="line2d_3">
      <g>
       <use xlink:href="#m0e839704ac" x="194.753856" y="1820" style="fill: #333333; stroke: #333333; stroke-width: 0.8"/>
      </g>
     </g>
     <g id="text_2">
      <!-- 2 -->
      <g style="fill: #333333" transform="translate(191.254481 1835.358281) scale(0.11 -0.11)">
       <defs>
        <path id="DejaVuSans-32" d="M 1228 531 
L 3431 531 
L 3431 0 
L 469 0 
L 469 531 
Q 828 903 1448 1529 
Q 2069 2156 2228 2338 
Q 2531 2678 2651 2914 
Q 2772 3150 2772 3378 
Q 2772 3750 2511 3984 
Q 2250 4219 1831 4219 
Q 1534 4219 1204 4116 
Q 875 4013 500 3803 
L 500 4441 
Q 881 4594 1212 4672 
Q 1544 4750 1819 4750 
Q 2544 4750 2975 4387 
Q 3406 4025 3406 3419 
Q 3406 3131 3298 2873 
Q 3191 2616 2906 2266 
Q 2828 2175 2409 1742 
Q 1991 1309 1228 531 
z
" transform="scale(0.015625)"/>
       </defs>
       <use xlink:href="#DejaVuSans-32"/>
      </g>
     </g>
    </g>
    <g id="xtick_3">
     <g id="line2d_4">
      <g>
       <use xlink:href="#m0e839704ac" x="280.832711" y="1820" style="fill: #333333; stroke: #333333; stroke-width: 0.8"/>
      </g>
     </g>
     <g id="text_3">
      <!-- 4 -->
      <g style="fill: #333333" transform="translate(277.333336 1835.358281) scale(0.11 -0.11)">
       <defs>
        <path id="DejaVuSans-34" d="M 2419 4116 
L 825 1625 
L 2419 1625 
L 2419 4116 
z
M 2253 4666 
L 3047 4666 
L 3047 1625 
L 3713 1625 
L 3713 1100 
L 3047 1100 
L 3047 0 
L 2419 0 
L 2419 1100 
L 313 1100 
L 313 1709 
L 2253 4666 
z
" transform="scale(0.015625)"/>
       </defs>
       <use xlink:href="#DejaVuSans-34"/>
      </g>
     </g>
    </g>
    <g id="xtick_4">
     <g id="line2d_5">
      <g>
       <use xlink:href="#m0e839704ac" x="366.911567" y="1820" style="fill: #333333; stroke: #333333; stroke-width: 0.8"/>
      </g>
     </g>
     <g id="text_4">
      <!-- 6 -->
      <g style="fill: #333333" transform="translate(363.412192 1835.358281) scale(0.11 -0.11)">
       <defs>
        <path id="DejaVuSans-36" d="M 2113 2584 
Q 1688 2584 1439 2293 
Q 1191 2003 1191 1497 
Q 1191 994 1439 701 
Q 1688 409 2113 409 
Q 2538 409 2786 701 
Q 3034 994 3034 1497 
Q 3034 2003 2786 2293 
Q 2538 2584 2113 2584 
z
M 3366 4563 
L 3366 3988 
Q 3128 4100 2886 4159 
Q 2644 4219 2406 4219 
Q 1781 4219 1451 3797 
Q 1122 3375 1075 2522 
Q 1259 2794 1537 2939 
Q 1816 3084 2150 3084 
Q 2853 3084 3261 2657 
Q 3669 2231 3669 1497 
Q 3669 778 3244 343 
Q 2819 -91 2113 -91 
Q 1303 -91 875 529 
Q 447 1150 447 2328 
Q 447 3434 972 4092 
Q 1497 4750 2381 4750 
Q 2619 4750 2861 4703 
Q 3103 4656 3366 4563 
z
" transform="scale(0.015625)"/>
       </defs>
       <use xlink:href="#DejaVuSans-36"/>
      </g>
     </g>
    </g>
    <g id="xtick_5">
     <g id="line2d_6">
      <g>
       <use xlink:href="#m0e839704ac" x="452.990422" y="1820" style="fill: #333333; stroke: #333333; stroke-width: 0.8"/>
      </g>
     </g>
     <g id="text_5">
      <!-- 8 -->
      <g style="fill: #333333" transform="translate(449.491047 1835.358281) scale(0.11 -0.11)">
       <defs>
        <path id="DejaVuSans-38" d="M 2034 2216 
Q 1584 2216 1326 1975 
Q 1069 1734 1069 1313 
Q 1069 891 1326 650 
Q 1584 409 2034 409 
Q 2484 409 2743 651 
Q 3003 894 3003 1313 
Q 3003 1734 2745 1975 
Q 2488 2216 2034 2216 
z
M 1403 2484 
Q 997 2584 770 2862 
Q 544 3141 544 3541 
Q 544 4100 942 4425 
Q 1341 4750 2034 4750 
Q 2731 4750 3128 4425 
Q 3525 4100 3525 3541 
Q 3525 3141 3298 2862 
Q 3072 2584 2669 2484 
Q 3125 2378 3379 2068 
Q 3634 1759 3634 1313 
Q 3634 634 3220 271 
Q 2806 -91 2034 -91 
Q 1263 -91 848 271 
Q 434 634 434 1313 
Q 434 1759 690 2068 
Q 947 2378 1403 2484 
z
M 1172 3481 
Q 1172 3119 1398 2916 
Q 1625 2713 2034 2713 
Q 2441 2713 2670 2916 
Q 2900 3119 2900 3481 
Q 2900 3844 2670 4047 
Q 2441 4250 2034 4250 
Q 1625 4250 1398 4047 
Q 1172 3844 1172 3481 
z
" transform="scale(0.015625)"/>
       </defs>
       <use xlink:href="#DejaVuSans-38"/>
      </g>
     </g>
    </g>
    <g id="xtick_6">
     <g id="line2d_7">
      <g>
       <use xlink:href="#m0e839704ac" x="539.069278" y="1820" style="fill: #333333; stroke: #333333; stroke-width: 0.8"/>
      </g>
     </g>
     <g id="text_6">
      <!-- 10 -->
      <g style="fill: #333333" transform="translate(532.070528 1835.358281) scale(0.11 -0.11)">
       <defs>
        <path id="DejaVuSans-31" d="M 794 531 
L 1825 531 
L 1825 4091 
L 703 3866 
L 703 4441 
L 1819 4666 
L 2450 4666 
L 2450 531 
L 3481 531 
L 3481 0 
L 794 0 
L 794 531 
z
" transform="scale(0.015625)"/>
       </defs>
       <use xlink:href="#DejaVuSans-31"/>
       <use xlink:href="#DejaVuSans-30" x="63.623047"/>
      </g>
     </g>
    </g>
    <g id="text_7">
     <!-- mean(|SHAP value|) (average impact on model output magnitude) -->
     <g transform="translate(120.468203 1851.580781) scale(0.13 -0.13)">
      <defs>
       <path id="DejaVuSans-6d" d="M 3328 2828 
Q 3544 3216 3844 3400 
Q 4144 3584 4550 3584 
Q 5097 3584 5394 3201 
Q 5691 2819 5691 2113 
L 5691 0 
L 5113 0 
L 5113 2094 
Q 5113 2597 4934 2840 
Q 4756 3084 4391 3084 
Q 3944 3084 3684 2787 
Q 3425 2491 3425 1978 
L 3425 0 
L 2847 0 
L 2847 2094 
Q 2847 2600 2669 2842 
Q 2491 3084 2119 3084 
Q 1678 3084 1418 2786 
Q 1159 2488 1159 1978 
L 1159 0 
L 581 0 
L 581 3500 
L 1159 3500 
L 1159 2956 
Q 1356 3278 1631 3431 
Q 1906 3584 2284 3584 
Q 2666 3584 2933 3390 
Q 3200 3197 3328 2828 
z
" transform="scale(0.015625)"/>
       <path id="DejaVuSans-65" d="M 3597 1894 
L 3597 1613 
L 953 1613 
Q 991 1019 1311 708 
Q 1631 397 2203 397 
Q 2534 397 2845 478 
Q 3156 559 3463 722 
L 3463 178 
Q 3153 47 2828 -22 
Q 2503 -91 2169 -91 
Q 1331 -91 842 396 
Q 353 884 353 1716 
Q 353 2575 817 3079 
Q 1281 3584 2069 3584 
Q 2775 3584 3186 3129 
Q 3597 2675 3597 1894 
z
M 3022 2063 
Q 3016 2534 2758 2815 
Q 2500 3097 2075 3097 
Q 1594 3097 1305 2825 
Q 1016 2553 972 2059 
L 3022 2063 
z
" transform="scale(0.015625)"/>
       <path id="DejaVuSans-61" d="M 2194 1759 
Q 1497 1759 1228 1600 
Q 959 1441 959 1056 
Q 959 750 1161 570 
Q 1363 391 1709 391 
Q 2188 391 2477 730 
Q 2766 1069 2766 1631 
L 2766 1759 
L 2194 1759 
z
M 3341 1997 
L 3341 0 
L 2766 0 
L 2766 531 
Q 2569 213 2275 61 
Q 1981 -91 1556 -91 
Q 1019 -91 701 211 
Q 384 513 384 1019 
Q 384 1609 779 1909 
Q 1175 2209 1959 2209 
L 2766 2209 
L 2766 2266 
Q 2766 2663 2505 2880 
Q 2244 3097 1772 3097 
Q 1472 3097 1187 3025 
Q 903 2953 641 2809 
L 641 3341 
Q 956 3463 1253 3523 
Q 1550 3584 1831 3584 
Q 2591 3584 2966 3190 
Q 3341 2797 3341 1997 
z
" transform="scale(0.015625)"/>
       <path id="DejaVuSans-6e" d="M 3513 2113 
L 3513 0 
L 2938 0 
L 2938 2094 
Q 2938 2591 2744 2837 
Q 2550 3084 2163 3084 
Q 1697 3084 1428 2787 
Q 1159 2491 1159 1978 
L 1159 0 
L 581 0 
L 581 3500 
L 1159 3500 
L 1159 2956 
Q 1366 3272 1645 3428 
Q 1925 3584 2291 3584 
Q 2894 3584 3203 3211 
Q 3513 2838 3513 2113 
z
" transform="scale(0.015625)"/>
       <path id="DejaVuSans-28" d="M 1984 4856 
Q 1566 4138 1362 3434 
Q 1159 2731 1159 2009 
Q 1159 1288 1364 580 
Q 1569 -128 1984 -844 
L 1484 -844 
Q 1016 -109 783 600 
Q 550 1309 550 2009 
Q 550 2706 781 3412 
Q 1013 4119 1484 4856 
L 1984 4856 
z
" transform="scale(0.015625)"/>
       <path id="DejaVuSans-7c" d="M 1344 4891 
L 1344 -1509 
L 813 -1509 
L 813 4891 
L 1344 4891 
z
" transform="scale(0.015625)"/>
       <path id="DejaVuSans-53" d="M 3425 4513 
L 3425 3897 
Q 3066 4069 2747 4153 
Q 2428 4238 2131 4238 
Q 1616 4238 1336 4038 
Q 1056 3838 1056 3469 
Q 1056 3159 1242 3001 
Q 1428 2844 1947 2747 
L 2328 2669 
Q 3034 2534 3370 2195 
Q 3706 1856 3706 1288 
Q 3706 609 3251 259 
Q 2797 -91 1919 -91 
Q 1588 -91 1214 -16 
Q 841 59 441 206 
L 441 856 
Q 825 641 1194 531 
Q 1563 422 1919 422 
Q 2459 422 2753 634 
Q 3047 847 3047 1241 
Q 3047 1584 2836 1778 
Q 2625 1972 2144 2069 
L 1759 2144 
Q 1053 2284 737 2584 
Q 422 2884 422 3419 
Q 422 4038 858 4394 
Q 1294 4750 2059 4750 
Q 2388 4750 2728 4690 
Q 3069 4631 3425 4513 
z
" transform="scale(0.015625)"/>
       <path id="DejaVuSans-48" d="M 628 4666 
L 1259 4666 
L 1259 2753 
L 3553 2753 
L 3553 4666 
L 4184 4666 
L 4184 0 
L 3553 0 
L 3553 2222 
L 1259 2222 
L 1259 0 
L 628 0 
L 628 4666 
z
" transform="scale(0.015625)"/>
       <path id="DejaVuSans-41" d="M 2188 4044 
L 1331 1722 
L 3047 1722 
L 2188 4044 
z
M 1831 4666 
L 2547 4666 
L 4325 0 
L 3669 0 
L 3244 1197 
L 1141 1197 
L 716 0 
L 50 0 
L 1831 4666 
z
" transform="scale(0.015625)"/>
       <path id="DejaVuSans-50" d="M 1259 4147 
L 1259 2394 
L 2053 2394 
Q 2494 2394 2734 2622 
Q 2975 2850 2975 3272 
Q 2975 3691 2734 3919 
Q 2494 4147 2053 4147 
L 1259 4147 
z
M 628 4666 
L 2053 4666 
Q 2838 4666 3239 4311 
Q 3641 3956 3641 3272 
Q 3641 2581 3239 2228 
Q 2838 1875 2053 1875 
L 1259 1875 
L 1259 0 
L 628 0 
L 628 4666 
z
" transform="scale(0.015625)"/>
       <path id="DejaVuSans-20" transform="scale(0.015625)"/>
       <path id="DejaVuSans-76" d="M 191 3500 
L 800 3500 
L 1894 563 
L 2988 3500 
L 3597 3500 
L 2284 0 
L 1503 0 
L 191 3500 
z
" transform="scale(0.015625)"/>
       <path id="DejaVuSans-6c" d="M 603 4863 
L 1178 4863 
L 1178 0 
L 603 0 
L 603 4863 
z
" transform="scale(0.015625)"/>
       <path id="DejaVuSans-75" d="M 544 1381 
L 544 3500 
L 1119 3500 
L 1119 1403 
Q 1119 906 1312 657 
Q 1506 409 1894 409 
Q 2359 409 2629 706 
Q 2900 1003 2900 1516 
L 2900 3500 
L 3475 3500 
L 3475 0 
L 2900 0 
L 2900 538 
Q 2691 219 2414 64 
Q 2138 -91 1772 -91 
Q 1169 -91 856 284 
Q 544 659 544 1381 
z
M 1991 3584 
L 1991 3584 
z
" transform="scale(0.015625)"/>
       <path id="DejaVuSans-29" d="M 513 4856 
L 1013 4856 
Q 1481 4119 1714 3412 
Q 1947 2706 1947 2009 
Q 1947 1309 1714 600 
Q 1481 -109 1013 -844 
L 513 -844 
Q 928 -128 1133 580 
Q 1338 1288 1338 2009 
Q 1338 2731 1133 3434 
Q 928 4138 513 4856 
z
" transform="scale(0.015625)"/>
       <path id="DejaVuSans-72" d="M 2631 2963 
Q 2534 3019 2420 3045 
Q 2306 3072 2169 3072 
Q 1681 3072 1420 2755 
Q 1159 2438 1159 1844 
L 1159 0 
L 581 0 
L 581 3500 
L 1159 3500 
L 1159 2956 
Q 1341 3275 1631 3429 
Q 1922 3584 2338 3584 
Q 2397 3584 2469 3576 
Q 2541 3569 2628 3553 
L 2631 2963 
z
" transform="scale(0.015625)"/>
       <path id="DejaVuSans-67" d="M 2906 1791 
Q 2906 2416 2648 2759 
Q 2391 3103 1925 3103 
Q 1463 3103 1205 2759 
Q 947 2416 947 1791 
Q 947 1169 1205 825 
Q 1463 481 1925 481 
Q 2391 481 2648 825 
Q 2906 1169 2906 1791 
z
M 3481 434 
Q 3481 -459 3084 -895 
Q 2688 -1331 1869 -1331 
Q 1566 -1331 1297 -1286 
Q 1028 -1241 775 -1147 
L 775 -588 
Q 1028 -725 1275 -790 
Q 1522 -856 1778 -856 
Q 2344 -856 2625 -561 
Q 2906 -266 2906 331 
L 2906 616 
Q 2728 306 2450 153 
Q 2172 0 1784 0 
Q 1141 0 747 490 
Q 353 981 353 1791 
Q 353 2603 747 3093 
Q 1141 3584 1784 3584 
Q 2172 3584 2450 3431 
Q 2728 3278 2906 2969 
L 2906 3500 
L 3481 3500 
L 3481 434 
z
" transform="scale(0.015625)"/>
       <path id="DejaVuSans-69" d="M 603 3500 
L 1178 3500 
L 1178 0 
L 603 0 
L 603 3500 
z
M 603 4863 
L 1178 4863 
L 1178 4134 
L 603 4134 
L 603 4863 
z
" transform="scale(0.015625)"/>
       <path id="DejaVuSans-70" d="M 1159 525 
L 1159 -1331 
L 581 -1331 
L 581 3500 
L 1159 3500 
L 1159 2969 
Q 1341 3281 1617 3432 
Q 1894 3584 2278 3584 
Q 2916 3584 3314 3078 
Q 3713 2572 3713 1747 
Q 3713 922 3314 415 
Q 2916 -91 2278 -91 
Q 1894 -91 1617 61 
Q 1341 213 1159 525 
z
M 3116 1747 
Q 3116 2381 2855 2742 
Q 2594 3103 2138 3103 
Q 1681 3103 1420 2742 
Q 1159 2381 1159 1747 
Q 1159 1113 1420 752 
Q 1681 391 2138 391 
Q 2594 391 2855 752 
Q 3116 1113 3116 1747 
z
" transform="scale(0.015625)"/>
       <path id="DejaVuSans-63" d="M 3122 3366 
L 3122 2828 
Q 2878 2963 2633 3030 
Q 2388 3097 2138 3097 
Q 1578 3097 1268 2742 
Q 959 2388 959 1747 
Q 959 1106 1268 751 
Q 1578 397 2138 397 
Q 2388 397 2633 464 
Q 2878 531 3122 666 
L 3122 134 
Q 2881 22 2623 -34 
Q 2366 -91 2075 -91 
Q 1284 -91 818 406 
Q 353 903 353 1747 
Q 353 2603 823 3093 
Q 1294 3584 2113 3584 
Q 2378 3584 2631 3529 
Q 2884 3475 3122 3366 
z
" transform="scale(0.015625)"/>
       <path id="DejaVuSans-74" d="M 1172 4494 
L 1172 3500 
L 2356 3500 
L 2356 3053 
L 1172 3053 
L 1172 1153 
Q 1172 725 1289 603 
Q 1406 481 1766 481 
L 2356 481 
L 2356 0 
L 1766 0 
Q 1100 0 847 248 
Q 594 497 594 1153 
L 594 3053 
L 172 3053 
L 172 3500 
L 594 3500 
L 594 4494 
L 1172 4494 
z
" transform="scale(0.015625)"/>
       <path id="DejaVuSans-6f" d="M 1959 3097 
Q 1497 3097 1228 2736 
Q 959 2375 959 1747 
Q 959 1119 1226 758 
Q 1494 397 1959 397 
Q 2419 397 2687 759 
Q 2956 1122 2956 1747 
Q 2956 2369 2687 2733 
Q 2419 3097 1959 3097 
z
M 1959 3584 
Q 2709 3584 3137 3096 
Q 3566 2609 3566 1747 
Q 3566 888 3137 398 
Q 2709 -91 1959 -91 
Q 1206 -91 779 398 
Q 353 888 353 1747 
Q 353 2609 779 3096 
Q 1206 3584 1959 3584 
z
" transform="scale(0.015625)"/>
       <path id="DejaVuSans-64" d="M 2906 2969 
L 2906 4863 
L 3481 4863 
L 3481 0 
L 2906 0 
L 2906 525 
Q 2725 213 2448 61 
Q 2172 -91 1784 -91 
Q 1150 -91 751 415 
Q 353 922 353 1747 
Q 353 2572 751 3078 
Q 1150 3584 1784 3584 
Q 2172 3584 2448 3432 
Q 2725 3281 2906 2969 
z
M 947 1747 
Q 947 1113 1208 752 
Q 1469 391 1925 391 
Q 2381 391 2643 752 
Q 2906 1113 2906 1747 
Q 2906 2381 2643 2742 
Q 2381 3103 1925 3103 
Q 1469 3103 1208 2742 
Q 947 2381 947 1747 
z
" transform="scale(0.015625)"/>
      </defs>
      <use xlink:href="#DejaVuSans-6d"/>
      <use xlink:href="#DejaVuSans-65" x="97.412109"/>
      <use xlink:href="#DejaVuSans-61" x="158.935547"/>
      <use xlink:href="#DejaVuSans-6e" x="220.214844"/>
      <use xlink:href="#DejaVuSans-28" x="283.59375"/>
      <use xlink:href="#DejaVuSans-7c" x="322.607422"/>
      <use xlink:href="#DejaVuSans-53" x="356.298828"/>
      <use xlink:href="#DejaVuSans-48" x="419.775391"/>
      <use xlink:href="#DejaVuSans-41" x="494.970703"/>
      <use xlink:href="#DejaVuSans-50" x="563.378906"/>
      <use xlink:href="#DejaVuSans-20" x="623.681641"/>
      <use xlink:href="#DejaVuSans-76" x="655.46875"/>
      <use xlink:href="#DejaVuSans-61" x="714.648438"/>
      <use xlink:href="#DejaVuSans-6c" x="775.927734"/>
      <use xlink:href="#DejaVuSans-75" x="803.710938"/>
      <use xlink:href="#DejaVuSans-65" x="867.089844"/>
      <use xlink:href="#DejaVuSans-7c" x="928.613281"/>
      <use xlink:href="#DejaVuSans-29" x="962.304688"/>
      <use xlink:href="#DejaVuSans-20" x="1001.318359"/>
      <use xlink:href="#DejaVuSans-28" x="1033.105469"/>
      <use xlink:href="#DejaVuSans-61" x="1072.119141"/>
      <use xlink:href="#DejaVuSans-76" x="1133.398438"/>
      <use xlink:href="#DejaVuSans-65" x="1192.578125"/>
      <use xlink:href="#DejaVuSans-72" x="1254.101562"/>
      <use xlink:href="#DejaVuSans-61" x="1295.214844"/>
      <use xlink:href="#DejaVuSans-67" x="1356.494141"/>
      <use xlink:href="#DejaVuSans-65" x="1419.970703"/>
      <use xlink:href="#DejaVuSans-20" x="1481.494141"/>
      <use xlink:href="#DejaVuSans-69" x="1513.28125"/>
      <use xlink:href="#DejaVuSans-6d" x="1541.064453"/>
      <use xlink:href="#DejaVuSans-70" x="1638.476562"/>
      <use xlink:href="#DejaVuSans-61" x="1701.953125"/>
      <use xlink:href="#DejaVuSans-63" x="1763.232422"/>
      <use xlink:href="#DejaVuSans-74" x="1818.212891"/>
      <use xlink:href="#DejaVuSans-20" x="1857.421875"/>
      <use xlink:href="#DejaVuSans-6f" x="1889.208984"/>
      <use xlink:href="#DejaVuSans-6e" x="1950.390625"/>
      <use xlink:href="#DejaVuSans-20" x="2013.769531"/>
      <use xlink:href="#DejaVuSans-6d" x="2045.556641"/>
      <use xlink:href="#DejaVuSans-6f" x="2142.96875"/>
      <use xlink:href="#DejaVuSans-64" x="2204.150391"/>
      <use xlink:href="#DejaVuSans-65" x="2267.626953"/>
      <use xlink:href="#DejaVuSans-6c" x="2329.150391"/>
      <use xlink:href="#DejaVuSans-20" x="2356.933594"/>
      <use xlink:href="#DejaVuSans-6f" x="2388.720703"/>
      <use xlink:href="#DejaVuSans-75" x="2449.902344"/>
      <use xlink:href="#DejaVuSans-74" x="2513.28125"/>
      <use xlink:href="#DejaVuSans-70" x="2552.490234"/>
      <use xlink:href="#DejaVuSans-75" x="2615.966797"/>
      <use xlink:href="#DejaVuSans-74" x="2679.345703"/>
      <use xlink:href="#DejaVuSans-20" x="2718.554688"/>
      <use xlink:href="#DejaVuSans-6d" x="2750.341797"/>
      <use xlink:href="#DejaVuSans-61" x="2847.753906"/>
      <use xlink:href="#DejaVuSans-67" x="2909.033203"/>
      <use xlink:href="#DejaVuSans-6e" x="2972.509766"/>
      <use xlink:href="#DejaVuSans-69" x="3035.888672"/>
      <use xlink:href="#DejaVuSans-74" x="3063.671875"/>
      <use xlink:href="#DejaVuSans-75" x="3102.880859"/>
      <use xlink:href="#DejaVuSans-64" x="3166.259766"/>
      <use xlink:href="#DejaVuSans-65" x="3229.736328"/>
      <use xlink:href="#DejaVuSans-29" x="3291.259766"/>
     </g>
    </g>
   </g>
   <g id="matplotlib.axis_2">
    <g id="ytick_1">
     <g id="text_8">
      <!-- THBS1 -->
      <g style="fill: #333333" transform="translate(58.7425 1795.758339) scale(0.13 -0.13)">
       <defs>
        <path id="DejaVuSans-54" d="M -19 4666 
L 3928 4666 
L 3928 4134 
L 2272 4134 
L 2272 0 
L 1638 0 
L 1638 4134 
L -19 4134 
L -19 4666 
z
" transform="scale(0.015625)"/>
        <path id="DejaVuSans-42" d="M 1259 2228 
L 1259 519 
L 2272 519 
Q 2781 519 3026 730 
Q 3272 941 3272 1375 
Q 3272 1813 3026 2020 
Q 2781 2228 2272 2228 
L 1259 2228 
z
M 1259 4147 
L 1259 2741 
L 2194 2741 
Q 2656 2741 2882 2914 
Q 3109 3088 3109 3444 
Q 3109 3797 2882 3972 
Q 2656 4147 2194 4147 
L 1259 4147 
z
M 628 4666 
L 2241 4666 
Q 2963 4666 3353 4366 
Q 3744 4066 3744 3513 
Q 3744 3084 3544 2831 
Q 3344 2578 2956 2516 
Q 3422 2416 3680 2098 
Q 3938 1781 3938 1306 
Q 3938 681 3513 340 
Q 3088 0 2303 0 
L 628 0 
L 628 4666 
z
" transform="scale(0.015625)"/>
       </defs>
       <use xlink:href="#DejaVuSans-54"/>
       <use xlink:href="#DejaVuSans-48" x="61.083984"/>
       <use xlink:href="#DejaVuSans-42" x="136.279297"/>
       <use xlink:href="#DejaVuSans-53" x="203.132812"/>
       <use xlink:href="#DejaVuSans-31" x="266.609375"/>
      </g>
     </g>
    </g>
    <g id="ytick_2">
     <g id="text_9">
      <!-- ITGA3 -->
      <g style="fill: #333333" transform="translate(62.662812 1766.577694) scale(0.13 -0.13)">
       <defs>
        <path id="DejaVuSans-49" d="M 628 4666 
L 1259 4666 
L 1259 0 
L 628 0 
L 628 4666 
z
" transform="scale(0.015625)"/>
        <path id="DejaVuSans-47" d="M 3809 666 
L 3809 1919 
L 2778 1919 
L 2778 2438 
L 4434 2438 
L 4434 434 
Q 4069 175 3628 42 
Q 3188 -91 2688 -91 
Q 1594 -91 976 548 
Q 359 1188 359 2328 
Q 359 3472 976 4111 
Q 1594 4750 2688 4750 
Q 3144 4750 3555 4637 
Q 3966 4525 4313 4306 
L 4313 3634 
Q 3963 3931 3569 4081 
Q 3175 4231 2741 4231 
Q 1884 4231 1454 3753 
Q 1025 3275 1025 2328 
Q 1025 1384 1454 906 
Q 1884 428 2741 428 
Q 3075 428 3337 486 
Q 3600 544 3809 666 
z
" transform="scale(0.015625)"/>
        <path id="DejaVuSans-33" d="M 2597 2516 
Q 3050 2419 3304 2112 
Q 3559 1806 3559 1356 
Q 3559 666 3084 287 
Q 2609 -91 1734 -91 
Q 1441 -91 1130 -33 
Q 819 25 488 141 
L 488 750 
Q 750 597 1062 519 
Q 1375 441 1716 441 
Q 2309 441 2620 675 
Q 2931 909 2931 1356 
Q 2931 1769 2642 2001 
Q 2353 2234 1838 2234 
L 1294 2234 
L 1294 2753 
L 1863 2753 
Q 2328 2753 2575 2939 
Q 2822 3125 2822 3475 
Q 2822 3834 2567 4026 
Q 2313 4219 1838 4219 
Q 1578 4219 1281 4162 
Q 984 4106 628 3988 
L 628 4550 
Q 988 4650 1302 4700 
Q 1616 4750 1894 4750 
Q 2613 4750 3031 4423 
Q 3450 4097 3450 3541 
Q 3450 3153 3228 2886 
Q 3006 2619 2597 2516 
z
" transform="scale(0.015625)"/>
       </defs>
       <use xlink:href="#DejaVuSans-49"/>
       <use xlink:href="#DejaVuSans-54" x="29.492188"/>
       <use xlink:href="#DejaVuSans-47" x="90.576172"/>
       <use xlink:href="#DejaVuSans-41" x="168.066406"/>
       <use xlink:href="#DejaVuSans-33" x="236.474609"/>
      </g>
     </g>
    </g>
    <g id="ytick_3">
     <g id="text_10">
      <!-- CFL2 -->
      <g style="fill: #333333" transform="translate(69.605625 1737.397049) scale(0.13 -0.13)">
       <defs>
        <path id="DejaVuSans-43" d="M 4122 4306 
L 4122 3641 
Q 3803 3938 3442 4084 
Q 3081 4231 2675 4231 
Q 1875 4231 1450 3742 
Q 1025 3253 1025 2328 
Q 1025 1406 1450 917 
Q 1875 428 2675 428 
Q 3081 428 3442 575 
Q 3803 722 4122 1019 
L 4122 359 
Q 3791 134 3420 21 
Q 3050 -91 2638 -91 
Q 1578 -91 968 557 
Q 359 1206 359 2328 
Q 359 3453 968 4101 
Q 1578 4750 2638 4750 
Q 3056 4750 3426 4639 
Q 3797 4528 4122 4306 
z
" transform="scale(0.015625)"/>
        <path id="DejaVuSans-46" d="M 628 4666 
L 3309 4666 
L 3309 4134 
L 1259 4134 
L 1259 2759 
L 3109 2759 
L 3109 2228 
L 1259 2228 
L 1259 0 
L 628 0 
L 628 4666 
z
" transform="scale(0.015625)"/>
        <path id="DejaVuSans-4c" d="M 628 4666 
L 1259 4666 
L 1259 531 
L 3531 531 
L 3531 0 
L 628 0 
L 628 4666 
z
" transform="scale(0.015625)"/>
       </defs>
       <use xlink:href="#DejaVuSans-43"/>
       <use xlink:href="#DejaVuSans-46" x="69.824219"/>
       <use xlink:href="#DejaVuSans-4c" x="127.34375"/>
       <use xlink:href="#DejaVuSans-32" x="183.056641"/>
      </g>
     </g>
    </g>
    <g id="ytick_4">
     <g id="text_11">
      <!-- ZYX -->
      <g style="fill: #333333" transform="translate(75.924844 1708.216404) scale(0.13 -0.13)">
       <defs>
        <path id="DejaVuSans-5a" d="M 359 4666 
L 4025 4666 
L 4025 4184 
L 1075 531 
L 4097 531 
L 4097 0 
L 288 0 
L 288 481 
L 3238 4134 
L 359 4134 
L 359 4666 
z
" transform="scale(0.015625)"/>
        <path id="DejaVuSans-59" d="M -13 4666 
L 666 4666 
L 1959 2747 
L 3244 4666 
L 3922 4666 
L 2272 2222 
L 2272 0 
L 1638 0 
L 1638 2222 
L -13 4666 
z
" transform="scale(0.015625)"/>
        <path id="DejaVuSans-58" d="M 403 4666 
L 1081 4666 
L 2241 2931 
L 3406 4666 
L 4084 4666 
L 2584 2425 
L 4184 0 
L 3506 0 
L 2194 1984 
L 872 0 
L 191 0 
L 1856 2491 
L 403 4666 
z
" transform="scale(0.015625)"/>
       </defs>
       <use xlink:href="#DejaVuSans-5a"/>
       <use xlink:href="#DejaVuSans-59" x="68.505859"/>
       <use xlink:href="#DejaVuSans-58" x="129.589844"/>
      </g>
     </g>
    </g>
    <g id="ytick_5">
     <g id="text_12">
      <!-- MET -->
      <g style="fill: #333333" transform="translate(74.303906 1679.035759) scale(0.13 -0.13)">
       <defs>
        <path id="DejaVuSans-4d" d="M 628 4666 
L 1569 4666 
L 2759 1491 
L 3956 4666 
L 4897 4666 
L 4897 0 
L 4281 0 
L 4281 4097 
L 3078 897 
L 2444 897 
L 1241 4097 
L 1241 0 
L 628 0 
L 628 4666 
z
" transform="scale(0.015625)"/>
        <path id="DejaVuSans-45" d="M 628 4666 
L 3578 4666 
L 3578 4134 
L 1259 4134 
L 1259 2753 
L 3481 2753 
L 3481 2222 
L 1259 2222 
L 1259 531 
L 3634 531 
L 3634 0 
L 628 0 
L 628 4666 
z
" transform="scale(0.015625)"/>
       </defs>
       <use xlink:href="#DejaVuSans-4d"/>
       <use xlink:href="#DejaVuSans-45" x="86.279297"/>
       <use xlink:href="#DejaVuSans-54" x="149.462891"/>
      </g>
     </g>
    </g>
    <g id="ytick_6">
     <g id="text_13">
      <!-- SDC4 -->
      <g style="fill: #333333" transform="translate(66.063125 1649.855113) scale(0.13 -0.13)">
       <defs>
        <path id="DejaVuSans-44" d="M 1259 4147 
L 1259 519 
L 2022 519 
Q 2988 519 3436 956 
Q 3884 1394 3884 2338 
Q 3884 3275 3436 3711 
Q 2988 4147 2022 4147 
L 1259 4147 
z
M 628 4666 
L 1925 4666 
Q 3281 4666 3915 4102 
Q 4550 3538 4550 2338 
Q 4550 1131 3912 565 
Q 3275 0 1925 0 
L 628 0 
L 628 4666 
z
" transform="scale(0.015625)"/>
       </defs>
       <use xlink:href="#DejaVuSans-53"/>
       <use xlink:href="#DejaVuSans-44" x="63.476562"/>
       <use xlink:href="#DejaVuSans-43" x="140.478516"/>
       <use xlink:href="#DejaVuSans-34" x="210.302734"/>
      </g>
     </g>
    </g>
    <g id="ytick_7">
     <g id="text_14">
      <!-- RRAS -->
      <g style="fill: #333333" transform="translate(66.983281 1620.674468) scale(0.13 -0.13)">
       <defs>
        <path id="DejaVuSans-52" d="M 2841 2188 
Q 3044 2119 3236 1894 
Q 3428 1669 3622 1275 
L 4263 0 
L 3584 0 
L 2988 1197 
Q 2756 1666 2539 1819 
Q 2322 1972 1947 1972 
L 1259 1972 
L 1259 0 
L 628 0 
L 628 4666 
L 2053 4666 
Q 2853 4666 3247 4331 
Q 3641 3997 3641 3322 
Q 3641 2881 3436 2590 
Q 3231 2300 2841 2188 
z
M 1259 4147 
L 1259 2491 
L 2053 2491 
Q 2509 2491 2742 2702 
Q 2975 2913 2975 3322 
Q 2975 3731 2742 3939 
Q 2509 4147 2053 4147 
L 1259 4147 
z
" transform="scale(0.015625)"/>
       </defs>
       <use xlink:href="#DejaVuSans-52"/>
       <use xlink:href="#DejaVuSans-52" x="69.482422"/>
       <use xlink:href="#DejaVuSans-41" x="134.964844"/>
       <use xlink:href="#DejaVuSans-53" x="203.373047"/>
      </g>
     </g>
    </g>
    <g id="ytick_8">
     <g id="text_15">
      <!-- ITGB1 -->
      <g style="fill: #333333" transform="translate(62.636406 1591.493823) scale(0.13 -0.13)">
       <use xlink:href="#DejaVuSans-49"/>
       <use xlink:href="#DejaVuSans-54" x="29.492188"/>
       <use xlink:href="#DejaVuSans-47" x="90.576172"/>
       <use xlink:href="#DejaVuSans-42" x="168.066406"/>
       <use xlink:href="#DejaVuSans-31" x="236.669922"/>
      </g>
     </g>
    </g>
    <g id="ytick_9">
     <g id="text_16">
      <!-- NOTCH3 -->
      <g style="fill: #333333" transform="translate(47.414219 1562.313178) scale(0.13 -0.13)">
       <defs>
        <path id="DejaVuSans-4e" d="M 628 4666 
L 1478 4666 
L 3547 763 
L 3547 4666 
L 4159 4666 
L 4159 0 
L 3309 0 
L 1241 3903 
L 1241 0 
L 628 0 
L 628 4666 
z
" transform="scale(0.015625)"/>
        <path id="DejaVuSans-4f" d="M 2522 4238 
Q 1834 4238 1429 3725 
Q 1025 3213 1025 2328 
Q 1025 1447 1429 934 
Q 1834 422 2522 422 
Q 3209 422 3611 934 
Q 4013 1447 4013 2328 
Q 4013 3213 3611 3725 
Q 3209 4238 2522 4238 
z
M 2522 4750 
Q 3503 4750 4090 4092 
Q 4678 3434 4678 2328 
Q 4678 1225 4090 567 
Q 3503 -91 2522 -91 
Q 1538 -91 948 565 
Q 359 1222 359 2328 
Q 359 3434 948 4092 
Q 1538 4750 2522 4750 
z
" transform="scale(0.015625)"/>
       </defs>
       <use xlink:href="#DejaVuSans-4e"/>
       <use xlink:href="#DejaVuSans-4f" x="74.804688"/>
       <use xlink:href="#DejaVuSans-54" x="153.515625"/>
       <use xlink:href="#DejaVuSans-43" x="208.724609"/>
       <use xlink:href="#DejaVuSans-48" x="278.548828"/>
       <use xlink:href="#DejaVuSans-33" x="353.744141"/>
      </g>
     </g>
    </g>
    <g id="ytick_10">
     <g id="text_17">
      <!-- OSMR -->
      <g style="fill: #333333" transform="translate(62.939062 1533.132533) scale(0.13 -0.13)">
       <use xlink:href="#DejaVuSans-4f"/>
       <use xlink:href="#DejaVuSans-53" x="78.710938"/>
       <use xlink:href="#DejaVuSans-4d" x="142.1875"/>
       <use xlink:href="#DejaVuSans-52" x="228.466797"/>
      </g>
     </g>
    </g>
    <g id="ytick_11">
     <g id="text_18">
      <!-- RRAS2 -->
      <g style="fill: #333333" transform="translate(58.712031 1503.951888) scale(0.13 -0.13)">
       <use xlink:href="#DejaVuSans-52"/>
       <use xlink:href="#DejaVuSans-52" x="69.482422"/>
       <use xlink:href="#DejaVuSans-41" x="134.964844"/>
       <use xlink:href="#DejaVuSans-53" x="203.373047"/>
       <use xlink:href="#DejaVuSans-32" x="266.849609"/>
      </g>
     </g>
    </g>
    <g id="ytick_12">
     <g id="text_19">
      <!-- ETS1 -->
      <g style="fill: #333333" transform="translate(68.99625 1474.771242) scale(0.13 -0.13)">
       <use xlink:href="#DejaVuSans-45"/>
       <use xlink:href="#DejaVuSans-54" x="63.183594"/>
       <use xlink:href="#DejaVuSans-53" x="124.267578"/>
       <use xlink:href="#DejaVuSans-31" x="187.744141"/>
      </g>
     </g>
    </g>
    <g id="ytick_13">
     <g id="text_20">
      <!-- FGFR2 -->
      <g style="fill: #333333" transform="translate(59.34375 1445.590597) scale(0.13 -0.13)">
       <use xlink:href="#DejaVuSans-46"/>
       <use xlink:href="#DejaVuSans-47" x="57.519531"/>
       <use xlink:href="#DejaVuSans-46" x="135.009766"/>
       <use xlink:href="#DejaVuSans-52" x="192.529297"/>
       <use xlink:href="#DejaVuSans-32" x="262.011719"/>
      </g>
     </g>
    </g>
    <g id="ytick_14">
     <g id="text_21">
      <!-- IL7R -->
      <g style="fill: #333333" transform="translate(73.292344 1416.409952) scale(0.13 -0.13)">
       <defs>
        <path id="DejaVuSans-37" d="M 525 4666 
L 3525 4666 
L 3525 4397 
L 1831 0 
L 1172 0 
L 2766 4134 
L 525 4134 
L 525 4666 
z
" transform="scale(0.015625)"/>
       </defs>
       <use xlink:href="#DejaVuSans-49"/>
       <use xlink:href="#DejaVuSans-4c" x="29.492188"/>
       <use xlink:href="#DejaVuSans-37" x="85.205078"/>
       <use xlink:href="#DejaVuSans-52" x="148.828125"/>
      </g>
     </g>
    </g>
    <g id="ytick_15">
     <g id="text_22">
      <!-- COL6A2 -->
      <g style="fill: #333333" transform="translate(49.685156 1387.229307) scale(0.13 -0.13)">
       <use xlink:href="#DejaVuSans-43"/>
       <use xlink:href="#DejaVuSans-4f" x="69.824219"/>
       <use xlink:href="#DejaVuSans-4c" x="148.535156"/>
       <use xlink:href="#DejaVuSans-36" x="204.248047"/>
       <use xlink:href="#DejaVuSans-41" x="267.871094"/>
       <use xlink:href="#DejaVuSans-32" x="336.279297"/>
      </g>
     </g>
    </g>
    <g id="ytick_16">
     <g id="text_23">
      <!-- COL6A1 -->
      <g style="fill: #333333" transform="translate(49.685156 1358.048662) scale(0.13 -0.13)">
       <use xlink:href="#DejaVuSans-43"/>
       <use xlink:href="#DejaVuSans-4f" x="69.824219"/>
       <use xlink:href="#DejaVuSans-4c" x="148.535156"/>
       <use xlink:href="#DejaVuSans-36" x="204.248047"/>
       <use xlink:href="#DejaVuSans-41" x="267.871094"/>
       <use xlink:href="#DejaVuSans-31" x="336.279297"/>
      </g>
     </g>
    </g>
    <g id="ytick_17">
     <g id="text_24">
      <!-- COL4A1 -->
      <g style="fill: #333333" transform="translate(49.685156 1328.868017) scale(0.13 -0.13)">
       <use xlink:href="#DejaVuSans-43"/>
       <use xlink:href="#DejaVuSans-4f" x="69.824219"/>
       <use xlink:href="#DejaVuSans-4c" x="148.535156"/>
       <use xlink:href="#DejaVuSans-34" x="204.248047"/>
       <use xlink:href="#DejaVuSans-41" x="267.871094"/>
       <use xlink:href="#DejaVuSans-31" x="336.279297"/>
      </g>
     </g>
    </g>
    <g id="ytick_18">
     <g id="text_25">
      <!-- FLNA -->
      <g style="fill: #333333" transform="translate(68.336094 1299.687371) scale(0.13 -0.13)">
       <use xlink:href="#DejaVuSans-46"/>
       <use xlink:href="#DejaVuSans-4c" x="57.519531"/>
       <use xlink:href="#DejaVuSans-4e" x="113.232422"/>
       <use xlink:href="#DejaVuSans-41" x="188.037109"/>
      </g>
     </g>
    </g>
    <g id="ytick_19">
     <g id="text_26">
      <!-- FZD2 -->
      <g style="fill: #333333" transform="translate(67.011719 1270.506726) scale(0.13 -0.13)">
       <use xlink:href="#DejaVuSans-46"/>
       <use xlink:href="#DejaVuSans-5a" x="57.519531"/>
       <use xlink:href="#DejaVuSans-44" x="126.025391"/>
       <use xlink:href="#DejaVuSans-32" x="203.027344"/>
      </g>
     </g>
    </g>
    <g id="ytick_20">
     <g id="text_27">
      <!-- MYH9 -->
      <g style="fill: #333333" transform="translate(64.470625 1241.326081) scale(0.13 -0.13)">
       <defs>
        <path id="DejaVuSans-39" d="M 703 97 
L 703 672 
Q 941 559 1184 500 
Q 1428 441 1663 441 
Q 2288 441 2617 861 
Q 2947 1281 2994 2138 
Q 2813 1869 2534 1725 
Q 2256 1581 1919 1581 
Q 1219 1581 811 2004 
Q 403 2428 403 3163 
Q 403 3881 828 4315 
Q 1253 4750 1959 4750 
Q 2769 4750 3195 4129 
Q 3622 3509 3622 2328 
Q 3622 1225 3098 567 
Q 2575 -91 1691 -91 
Q 1453 -91 1209 -44 
Q 966 3 703 97 
z
M 1959 2075 
Q 2384 2075 2632 2365 
Q 2881 2656 2881 3163 
Q 2881 3666 2632 3958 
Q 2384 4250 1959 4250 
Q 1534 4250 1286 3958 
Q 1038 3666 1038 3163 
Q 1038 2656 1286 2365 
Q 1534 2075 1959 2075 
z
" transform="scale(0.015625)"/>
       </defs>
       <use xlink:href="#DejaVuSans-4d"/>
       <use xlink:href="#DejaVuSans-59" x="86.279297"/>
       <use xlink:href="#DejaVuSans-48" x="147.363281"/>
       <use xlink:href="#DejaVuSans-39" x="222.558594"/>
      </g>
     </g>
    </g>
    <g id="ytick_21">
     <g id="text_28">
      <!-- EGFR -->
      <g style="fill: #333333" transform="translate(66.877656 1212.145436) scale(0.13 -0.13)">
       <use xlink:href="#DejaVuSans-45"/>
       <use xlink:href="#DejaVuSans-47" x="63.183594"/>
       <use xlink:href="#DejaVuSans-46" x="140.673828"/>
       <use xlink:href="#DejaVuSans-52" x="198.193359"/>
      </g>
     </g>
    </g>
    <g id="ytick_22">
     <g id="text_29">
      <!-- ITGA5 -->
      <g style="fill: #333333" transform="translate(62.662812 1182.964791) scale(0.13 -0.13)">
       <defs>
        <path id="DejaVuSans-35" d="M 691 4666 
L 3169 4666 
L 3169 4134 
L 1269 4134 
L 1269 2991 
Q 1406 3038 1543 3061 
Q 1681 3084 1819 3084 
Q 2600 3084 3056 2656 
Q 3513 2228 3513 1497 
Q 3513 744 3044 326 
Q 2575 -91 1722 -91 
Q 1428 -91 1123 -41 
Q 819 9 494 109 
L 494 744 
Q 775 591 1075 516 
Q 1375 441 1709 441 
Q 2250 441 2565 725 
Q 2881 1009 2881 1497 
Q 2881 1984 2565 2268 
Q 2250 2553 1709 2553 
Q 1456 2553 1204 2497 
Q 953 2441 691 2322 
L 691 4666 
z
" transform="scale(0.015625)"/>
       </defs>
       <use xlink:href="#DejaVuSans-49"/>
       <use xlink:href="#DejaVuSans-54" x="29.492188"/>
       <use xlink:href="#DejaVuSans-47" x="90.576172"/>
       <use xlink:href="#DejaVuSans-41" x="168.066406"/>
       <use xlink:href="#DejaVuSans-35" x="236.474609"/>
      </g>
     </g>
    </g>
    <g id="ytick_23">
     <g id="text_30">
      <!-- NGF -->
      <g style="fill: #333333" transform="translate(74.399375 1153.784146) scale(0.13 -0.13)">
       <use xlink:href="#DejaVuSans-4e"/>
       <use xlink:href="#DejaVuSans-47" x="74.804688"/>
       <use xlink:href="#DejaVuSans-46" x="152.294922"/>
      </g>
     </g>
    </g>
    <g id="ytick_24">
     <g id="text_31">
      <!-- GNAI2 -->
      <g style="fill: #333333" transform="translate(60.877344 1124.603501) scale(0.13 -0.13)">
       <use xlink:href="#DejaVuSans-47"/>
       <use xlink:href="#DejaVuSans-4e" x="77.490234"/>
       <use xlink:href="#DejaVuSans-41" x="152.294922"/>
       <use xlink:href="#DejaVuSans-49" x="220.703125"/>
       <use xlink:href="#DejaVuSans-32" x="250.195312"/>
      </g>
     </g>
    </g>
    <g id="ytick_25">
     <g id="text_32">
      <!-- ITGA6 -->
      <g style="fill: #333333" transform="translate(62.662812 1095.422855) scale(0.13 -0.13)">
       <use xlink:href="#DejaVuSans-49"/>
       <use xlink:href="#DejaVuSans-54" x="29.492188"/>
       <use xlink:href="#DejaVuSans-47" x="90.576172"/>
       <use xlink:href="#DejaVuSans-41" x="168.066406"/>
       <use xlink:href="#DejaVuSans-36" x="236.474609"/>
      </g>
     </g>
    </g>
    <g id="ytick_26">
     <g id="text_33">
      <!-- CSF1 -->
      <g style="fill: #333333" transform="translate(68.596094 1066.24221) scale(0.13 -0.13)">
       <use xlink:href="#DejaVuSans-43"/>
       <use xlink:href="#DejaVuSans-53" x="69.824219"/>
       <use xlink:href="#DejaVuSans-46" x="133.300781"/>
       <use xlink:href="#DejaVuSans-31" x="190.820312"/>
      </g>
     </g>
    </g>
    <g id="ytick_27">
     <g id="text_34">
      <!-- CAV2 -->
      <g style="fill: #333333" transform="translate(67.369219 1037.061565) scale(0.13 -0.13)">
       <defs>
        <path id="DejaVuSans-56" d="M 1831 0 
L 50 4666 
L 709 4666 
L 2188 738 
L 3669 4666 
L 4325 4666 
L 2547 0 
L 1831 0 
z
" transform="scale(0.015625)"/>
       </defs>
       <use xlink:href="#DejaVuSans-43"/>
       <use xlink:href="#DejaVuSans-41" x="69.824219"/>
       <use xlink:href="#DejaVuSans-56" x="131.857422"/>
       <use xlink:href="#DejaVuSans-32" x="200.265625"/>
      </g>
     </g>
    </g>
    <g id="ytick_28">
     <g id="text_35">
      <!-- ITGB6 -->
      <g style="fill: #333333" transform="translate(62.636406 1007.88092) scale(0.13 -0.13)">
       <use xlink:href="#DejaVuSans-49"/>
       <use xlink:href="#DejaVuSans-54" x="29.492188"/>
       <use xlink:href="#DejaVuSans-47" x="90.576172"/>
       <use xlink:href="#DejaVuSans-42" x="168.066406"/>
       <use xlink:href="#DejaVuSans-36" x="236.669922"/>
      </g>
     </g>
    </g>
    <g id="ytick_29">
     <g id="text_36">
      <!-- TGFB1 -->
      <g style="fill: #333333" transform="translate(58.994375 978.700275) scale(0.13 -0.13)">
       <use xlink:href="#DejaVuSans-54"/>
       <use xlink:href="#DejaVuSans-47" x="61.083984"/>
       <use xlink:href="#DejaVuSans-46" x="138.574219"/>
       <use xlink:href="#DejaVuSans-42" x="196.09375"/>
       <use xlink:href="#DejaVuSans-31" x="264.697266"/>
      </g>
     </g>
    </g>
    <g id="ytick_30">
     <g id="text_37">
      <!-- FGF1 -->
      <g style="fill: #333333" transform="translate(68.376719 949.51963) scale(0.13 -0.13)">
       <use xlink:href="#DejaVuSans-46"/>
       <use xlink:href="#DejaVuSans-47" x="57.519531"/>
       <use xlink:href="#DejaVuSans-46" x="135.009766"/>
       <use xlink:href="#DejaVuSans-31" x="192.529297"/>
      </g>
     </g>
    </g>
    <g id="ytick_31">
     <g id="text_38">
      <!-- BDNF -->
      <g style="fill: #333333" transform="translate(65.543125 920.338984) scale(0.13 -0.13)">
       <use xlink:href="#DejaVuSans-42"/>
       <use xlink:href="#DejaVuSans-44" x="68.603516"/>
       <use xlink:href="#DejaVuSans-4e" x="145.605469"/>
       <use xlink:href="#DejaVuSans-46" x="220.410156"/>
      </g>
     </g>
    </g>
    <g id="ytick_32">
     <g id="text_39">
      <!-- COL9A2 -->
      <g style="fill: #333333" transform="translate(49.685156 891.158339) scale(0.13 -0.13)">
       <use xlink:href="#DejaVuSans-43"/>
       <use xlink:href="#DejaVuSans-4f" x="69.824219"/>
       <use xlink:href="#DejaVuSans-4c" x="148.535156"/>
       <use xlink:href="#DejaVuSans-39" x="204.248047"/>
       <use xlink:href="#DejaVuSans-41" x="267.871094"/>
       <use xlink:href="#DejaVuSans-32" x="336.279297"/>
      </g>
     </g>
    </g>
    <g id="ytick_33">
     <g id="text_40">
      <!-- CAV1 -->
      <g style="fill: #333333" transform="translate(67.369219 861.977694) scale(0.13 -0.13)">
       <use xlink:href="#DejaVuSans-43"/>
       <use xlink:href="#DejaVuSans-41" x="69.824219"/>
       <use xlink:href="#DejaVuSans-56" x="131.857422"/>
       <use xlink:href="#DejaVuSans-31" x="200.265625"/>
      </g>
     </g>
    </g>
    <g id="ytick_34">
     <g id="text_41">
      <!-- ACTN2 -->
      <g style="fill: #333333" transform="translate(57.995 832.797049) scale(0.13 -0.13)">
       <use xlink:href="#DejaVuSans-41"/>
       <use xlink:href="#DejaVuSans-43" x="66.658203"/>
       <use xlink:href="#DejaVuSans-54" x="136.482422"/>
       <use xlink:href="#DejaVuSans-4e" x="197.566406"/>
       <use xlink:href="#DejaVuSans-32" x="272.371094"/>
      </g>
     </g>
    </g>
    <g id="ytick_35">
     <g id="text_42">
      <!-- FGF9 -->
      <g style="fill: #333333" transform="translate(68.376719 803.616404) scale(0.13 -0.13)">
       <use xlink:href="#DejaVuSans-46"/>
       <use xlink:href="#DejaVuSans-47" x="57.519531"/>
       <use xlink:href="#DejaVuSans-46" x="135.009766"/>
       <use xlink:href="#DejaVuSans-39" x="192.529297"/>
      </g>
     </g>
    </g>
    <g id="ytick_36">
     <g id="text_43">
      <!-- CD44 -->
      <g style="fill: #333333" transform="translate(66.044844 774.435759) scale(0.13 -0.13)">
       <use xlink:href="#DejaVuSans-43"/>
       <use xlink:href="#DejaVuSans-44" x="69.824219"/>
       <use xlink:href="#DejaVuSans-34" x="146.826172"/>
       <use xlink:href="#DejaVuSans-34" x="210.449219"/>
      </g>
     </g>
    </g>
    <g id="ytick_37">
     <g id="text_44">
      <!-- FGF6 -->
      <g style="fill: #333333" transform="translate(68.376719 745.255113) scale(0.13 -0.13)">
       <use xlink:href="#DejaVuSans-46"/>
       <use xlink:href="#DejaVuSans-47" x="57.519531"/>
       <use xlink:href="#DejaVuSans-46" x="135.009766"/>
       <use xlink:href="#DejaVuSans-36" x="192.529297"/>
      </g>
     </g>
    </g>
    <g id="ytick_38">
     <g id="text_45">
      <!-- CAV3 -->
      <g style="fill: #333333" transform="translate(67.369219 716.074468) scale(0.13 -0.13)">
       <use xlink:href="#DejaVuSans-43"/>
       <use xlink:href="#DejaVuSans-41" x="69.824219"/>
       <use xlink:href="#DejaVuSans-56" x="131.857422"/>
       <use xlink:href="#DejaVuSans-33" x="200.265625"/>
      </g>
     </g>
    </g>
    <g id="ytick_39">
     <g id="text_46">
      <!-- MSN -->
      <g style="fill: #333333" transform="translate(72.479844 686.893823) scale(0.13 -0.13)">
       <use xlink:href="#DejaVuSans-4d"/>
       <use xlink:href="#DejaVuSans-53" x="86.279297"/>
       <use xlink:href="#DejaVuSans-4e" x="149.755859"/>
      </g>
     </g>
    </g>
    <g id="ytick_40">
     <g id="text_47">
      <!-- PLAU -->
      <g style="fill: #333333" transform="translate(67.893281 657.713178) scale(0.13 -0.13)">
       <defs>
        <path id="DejaVuSans-55" d="M 556 4666 
L 1191 4666 
L 1191 1831 
Q 1191 1081 1462 751 
Q 1734 422 2344 422 
Q 2950 422 3222 751 
Q 3494 1081 3494 1831 
L 3494 4666 
L 4128 4666 
L 4128 1753 
Q 4128 841 3676 375 
Q 3225 -91 2344 -91 
Q 1459 -91 1007 375 
Q 556 841 556 1753 
L 556 4666 
z
" transform="scale(0.015625)"/>
       </defs>
       <use xlink:href="#DejaVuSans-50"/>
       <use xlink:href="#DejaVuSans-4c" x="60.302734"/>
       <use xlink:href="#DejaVuSans-41" x="118.265625"/>
       <use xlink:href="#DejaVuSans-55" x="186.673828"/>
      </g>
     </g>
    </g>
    <g id="ytick_41">
     <g id="text_48">
      <!-- GNG12 -->
      <g style="fill: #333333" transform="translate(55.260937 628.532533) scale(0.13 -0.13)">
       <use xlink:href="#DejaVuSans-47"/>
       <use xlink:href="#DejaVuSans-4e" x="77.490234"/>
       <use xlink:href="#DejaVuSans-47" x="152.294922"/>
       <use xlink:href="#DejaVuSans-31" x="229.785156"/>
       <use xlink:href="#DejaVuSans-32" x="293.408203"/>
      </g>
     </g>
    </g>
    <g id="ytick_42">
     <g id="text_49">
      <!-- ACTN4 -->
      <g style="fill: #333333" transform="translate(57.995 599.351888) scale(0.13 -0.13)">
       <use xlink:href="#DejaVuSans-41"/>
       <use xlink:href="#DejaVuSans-43" x="66.658203"/>
       <use xlink:href="#DejaVuSans-54" x="136.482422"/>
       <use xlink:href="#DejaVuSans-4e" x="197.566406"/>
       <use xlink:href="#DejaVuSans-34" x="272.371094"/>
      </g>
     </g>
    </g>
    <g id="ytick_43">
     <g id="text_50">
      <!-- ACTN1 -->
      <g style="fill: #333333" transform="translate(57.995 570.171242) scale(0.13 -0.13)">
       <use xlink:href="#DejaVuSans-41"/>
       <use xlink:href="#DejaVuSans-43" x="66.658203"/>
       <use xlink:href="#DejaVuSans-54" x="136.482422"/>
       <use xlink:href="#DejaVuSans-4e" x="197.566406"/>
       <use xlink:href="#DejaVuSans-31" x="272.371094"/>
      </g>
     </g>
    </g>
    <g id="ytick_44">
     <g id="text_51">
      <!-- FSCN1 -->
      <g style="fill: #333333" transform="translate(59.097969 540.990597) scale(0.13 -0.13)">
       <use xlink:href="#DejaVuSans-46"/>
       <use xlink:href="#DejaVuSans-53" x="55.769531"/>
       <use xlink:href="#DejaVuSans-43" x="119.246094"/>
       <use xlink:href="#DejaVuSans-4e" x="189.070312"/>
       <use xlink:href="#DejaVuSans-31" x="263.875"/>
      </g>
     </g>
    </g>
    <g id="ytick_45">
     <g id="text_52">
      <!-- NOTCH2 -->
      <g style="fill: #333333" transform="translate(47.414219 511.809952) scale(0.13 -0.13)">
       <use xlink:href="#DejaVuSans-4e"/>
       <use xlink:href="#DejaVuSans-4f" x="74.804688"/>
       <use xlink:href="#DejaVuSans-54" x="153.515625"/>
       <use xlink:href="#DejaVuSans-43" x="208.724609"/>
       <use xlink:href="#DejaVuSans-48" x="278.548828"/>
       <use xlink:href="#DejaVuSans-32" x="353.744141"/>
      </g>
     </g>
    </g>
    <g id="ytick_46">
     <g id="text_53">
      <!-- ITGB8 -->
      <g style="fill: #333333" transform="translate(62.636406 482.629307) scale(0.13 -0.13)">
       <use xlink:href="#DejaVuSans-49"/>
       <use xlink:href="#DejaVuSans-54" x="29.492188"/>
       <use xlink:href="#DejaVuSans-47" x="90.576172"/>
       <use xlink:href="#DejaVuSans-42" x="168.066406"/>
       <use xlink:href="#DejaVuSans-38" x="236.669922"/>
      </g>
     </g>
    </g>
    <g id="ytick_47">
     <g id="text_54">
      <!-- AGRIN -->
      <g style="fill: #333333" transform="translate(60.343125 453.448662) scale(0.13 -0.13)">
       <use xlink:href="#DejaVuSans-41"/>
       <use xlink:href="#DejaVuSans-47" x="66.658203"/>
       <use xlink:href="#DejaVuSans-52" x="144.148438"/>
       <use xlink:href="#DejaVuSans-49" x="213.630859"/>
       <use xlink:href="#DejaVuSans-4e" x="243.123047"/>
      </g>
     </g>
    </g>
    <g id="ytick_48">
     <g id="text_55">
      <!-- ACTN3 -->
      <g style="fill: #333333" transform="translate(57.995 424.268017) scale(0.13 -0.13)">
       <use xlink:href="#DejaVuSans-41"/>
       <use xlink:href="#DejaVuSans-43" x="66.658203"/>
       <use xlink:href="#DejaVuSans-54" x="136.482422"/>
       <use xlink:href="#DejaVuSans-4e" x="197.566406"/>
       <use xlink:href="#DejaVuSans-33" x="272.371094"/>
      </g>
     </g>
    </g>
    <g id="ytick_49">
     <g id="text_56">
      <!-- VEGFC -->
      <g style="fill: #333333" transform="translate(57.940156 395.087371) scale(0.13 -0.13)">
       <use xlink:href="#DejaVuSans-56"/>
       <use xlink:href="#DejaVuSans-45" x="68.408203"/>
       <use xlink:href="#DejaVuSans-47" x="131.591797"/>
       <use xlink:href="#DejaVuSans-46" x="209.082031"/>
       <use xlink:href="#DejaVuSans-43" x="266.601562"/>
      </g>
     </g>
    </g>
    <g id="ytick_50">
     <g id="text_57">
      <!-- MYLK -->
      <g style="fill: #333333" transform="translate(66.749687 365.906726) scale(0.13 -0.13)">
       <defs>
        <path id="DejaVuSans-4b" d="M 628 4666 
L 1259 4666 
L 1259 2694 
L 3353 4666 
L 4166 4666 
L 1850 2491 
L 4331 0 
L 3500 0 
L 1259 2247 
L 1259 0 
L 628 0 
L 628 4666 
z
" transform="scale(0.015625)"/>
       </defs>
       <use xlink:href="#DejaVuSans-4d"/>
       <use xlink:href="#DejaVuSans-59" x="86.279297"/>
       <use xlink:href="#DejaVuSans-4c" x="147.363281"/>
       <use xlink:href="#DejaVuSans-4b" x="203.076172"/>
      </g>
     </g>
    </g>
    <g id="ytick_51">
     <g id="text_58">
      <!-- FGF18 -->
      <g style="fill: #333333" transform="translate(60.105469 336.726081) scale(0.13 -0.13)">
       <use xlink:href="#DejaVuSans-46"/>
       <use xlink:href="#DejaVuSans-47" x="57.519531"/>
       <use xlink:href="#DejaVuSans-46" x="135.009766"/>
       <use xlink:href="#DejaVuSans-31" x="192.529297"/>
       <use xlink:href="#DejaVuSans-38" x="256.152344"/>
      </g>
     </g>
    </g>
    <g id="ytick_52">
     <g id="text_59">
      <!-- Polydispersity -->
      <g style="fill: #333333" transform="translate(11.639844 307.545436) scale(0.13 -0.13)">
       <defs>
        <path id="DejaVuSans-79" d="M 2059 -325 
Q 1816 -950 1584 -1140 
Q 1353 -1331 966 -1331 
L 506 -1331 
L 506 -850 
L 844 -850 
Q 1081 -850 1212 -737 
Q 1344 -625 1503 -206 
L 1606 56 
L 191 3500 
L 800 3500 
L 1894 763 
L 2988 3500 
L 3597 3500 
L 2059 -325 
z
" transform="scale(0.015625)"/>
        <path id="DejaVuSans-73" d="M 2834 3397 
L 2834 2853 
Q 2591 2978 2328 3040 
Q 2066 3103 1784 3103 
Q 1356 3103 1142 2972 
Q 928 2841 928 2578 
Q 928 2378 1081 2264 
Q 1234 2150 1697 2047 
L 1894 2003 
Q 2506 1872 2764 1633 
Q 3022 1394 3022 966 
Q 3022 478 2636 193 
Q 2250 -91 1575 -91 
Q 1294 -91 989 -36 
Q 684 19 347 128 
L 347 722 
Q 666 556 975 473 
Q 1284 391 1588 391 
Q 1994 391 2212 530 
Q 2431 669 2431 922 
Q 2431 1156 2273 1281 
Q 2116 1406 1581 1522 
L 1381 1569 
Q 847 1681 609 1914 
Q 372 2147 372 2553 
Q 372 3047 722 3315 
Q 1072 3584 1716 3584 
Q 2034 3584 2315 3537 
Q 2597 3491 2834 3397 
z
" transform="scale(0.015625)"/>
       </defs>
       <use xlink:href="#DejaVuSans-50"/>
       <use xlink:href="#DejaVuSans-6f" x="56.677734"/>
       <use xlink:href="#DejaVuSans-6c" x="117.859375"/>
       <use xlink:href="#DejaVuSans-79" x="145.642578"/>
       <use xlink:href="#DejaVuSans-64" x="204.822266"/>
       <use xlink:href="#DejaVuSans-69" x="268.298828"/>
       <use xlink:href="#DejaVuSans-73" x="296.082031"/>
       <use xlink:href="#DejaVuSans-70" x="348.181641"/>
       <use xlink:href="#DejaVuSans-65" x="411.658203"/>
       <use xlink:href="#DejaVuSans-72" x="473.181641"/>
       <use xlink:href="#DejaVuSans-73" x="514.294922"/>
       <use xlink:href="#DejaVuSans-69" x="566.394531"/>
       <use xlink:href="#DejaVuSans-74" x="594.177734"/>
       <use xlink:href="#DejaVuSans-79" x="633.386719"/>
      </g>
     </g>
    </g>
    <g id="ytick_53">
     <g id="text_60">
      <!-- C6R -->
      <g style="fill: #333333" transform="translate(75.293125 278.364791) scale(0.13 -0.13)">
       <use xlink:href="#DejaVuSans-43"/>
       <use xlink:href="#DejaVuSans-36" x="69.824219"/>
       <use xlink:href="#DejaVuSans-52" x="133.447266"/>
      </g>
     </g>
    </g>
    <g id="ytick_54">
     <g id="text_61">
      <!-- VIM -->
      <g style="fill: #333333" transform="translate(77.730625 249.184146) scale(0.13 -0.13)">
       <use xlink:href="#DejaVuSans-56"/>
       <use xlink:href="#DejaVuSans-49" x="68.408203"/>
       <use xlink:href="#DejaVuSans-4d" x="97.900391"/>
      </g>
     </g>
    </g>
    <g id="ytick_55">
     <g id="text_62">
      <!-- C32K -->
      <g style="fill: #333333" transform="translate(67.529687 220.003501) scale(0.13 -0.13)">
       <use xlink:href="#DejaVuSans-43"/>
       <use xlink:href="#DejaVuSans-33" x="69.824219"/>
       <use xlink:href="#DejaVuSans-32" x="133.447266"/>
       <use xlink:href="#DejaVuSans-4b" x="197.070312"/>
      </g>
     </g>
    </g>
    <g id="ytick_56">
     <g id="text_63">
      <!-- PDGFC -->
      <g style="fill: #333333" transform="translate(57.19875 190.822855) scale(0.13 -0.13)">
       <use xlink:href="#DejaVuSans-50"/>
       <use xlink:href="#DejaVuSans-44" x="60.302734"/>
       <use xlink:href="#DejaVuSans-47" x="137.304688"/>
       <use xlink:href="#DejaVuSans-46" x="214.794922"/>
       <use xlink:href="#DejaVuSans-43" x="272.314453"/>
      </g>
     </g>
    </g>
    <g id="ytick_57">
     <g id="text_64">
      <!-- C6K -->
      <g style="fill: #333333" transform="translate(75.800938 161.64221) scale(0.13 -0.13)">
       <use xlink:href="#DejaVuSans-43"/>
       <use xlink:href="#DejaVuSans-36" x="69.824219"/>
       <use xlink:href="#DejaVuSans-4b" x="133.447266"/>
      </g>
     </g>
    </g>
    <g id="ytick_58">
     <g id="text_65">
      <!-- C32H -->
      <g style="fill: #333333" transform="translate(66.278437 132.461565) scale(0.13 -0.13)">
       <use xlink:href="#DejaVuSans-43"/>
       <use xlink:href="#DejaVuSans-33" x="69.824219"/>
       <use xlink:href="#DejaVuSans-32" x="133.447266"/>
       <use xlink:href="#DejaVuSans-48" x="197.070312"/>
      </g>
     </g>
    </g>
    <g id="ytick_59">
     <g id="text_66">
      <!-- Size -->
      <g style="fill: #333333" transform="translate(74.988438 103.28092) scale(0.13 -0.13)">
       <defs>
        <path id="DejaVuSans-7a" d="M 353 3500 
L 3084 3500 
L 3084 2975 
L 922 459 
L 3084 459 
L 3084 0 
L 275 0 
L 275 525 
L 2438 3041 
L 353 3041 
L 353 3500 
z
" transform="scale(0.015625)"/>
       </defs>
       <use xlink:href="#DejaVuSans-53"/>
       <use xlink:href="#DejaVuSans-69" x="63.476562"/>
       <use xlink:href="#DejaVuSans-7a" x="91.259766"/>
       <use xlink:href="#DejaVuSans-65" x="143.75"/>
      </g>
     </g>
    </g>
    <g id="ytick_60">
     <g id="text_67">
      <!-- C32R -->
      <g style="fill: #333333" transform="translate(67.021875 74.100275) scale(0.13 -0.13)">
       <use xlink:href="#DejaVuSans-43"/>
       <use xlink:href="#DejaVuSans-33" x="69.824219"/>
       <use xlink:href="#DejaVuSans-32" x="133.447266"/>
       <use xlink:href="#DejaVuSans-52" x="197.070312"/>
      </g>
     </g>
    </g>
    <g id="ytick_61">
     <g id="text_68">
      <!-- C6H -->
      <g style="fill: #333333" transform="translate(74.549688 44.91963) scale(0.13 -0.13)">
       <use xlink:href="#DejaVuSans-43"/>
       <use xlink:href="#DejaVuSans-36" x="69.824219"/>
       <use xlink:href="#DejaVuSans-48" x="133.447266"/>
      </g>
     </g>
    </g>
   </g>
   <g id="patch_64">
    <path d="M 108.675 1820 
L 565.2 1820 
" style="fill: none; stroke: #000000; stroke-width: 0.8; stroke-linejoin: miter; stroke-linecap: square"/>
   </g>
   <g id="text_69">
    <!-- Global Feature Importance -->
    <g transform="translate(256.932187 4.8) scale(0.12 -0.12)">
     <defs>
      <path id="DejaVuSans-62" d="M 3116 1747 
Q 3116 2381 2855 2742 
Q 2594 3103 2138 3103 
Q 1681 3103 1420 2742 
Q 1159 2381 1159 1747 
Q 1159 1113 1420 752 
Q 1681 391 2138 391 
Q 2594 391 2855 752 
Q 3116 1113 3116 1747 
z
M 1159 2969 
Q 1341 3281 1617 3432 
Q 1894 3584 2278 3584 
Q 2916 3584 3314 3078 
Q 3713 2572 3713 1747 
Q 3713 922 3314 415 
Q 2916 -91 2278 -91 
Q 1894 -91 1617 61 
Q 1341 213 1159 525 
L 1159 0 
L 581 0 
L 581 4863 
L 1159 4863 
L 1159 2969 
z
" transform="scale(0.015625)"/>
     </defs>
     <use xlink:href="#DejaVuSans-47"/>
     <use xlink:href="#DejaVuSans-6c" x="77.490234"/>
     <use xlink:href="#DejaVuSans-6f" x="105.273438"/>
     <use xlink:href="#DejaVuSans-62" x="166.455078"/>
     <use xlink:href="#DejaVuSans-61" x="229.931641"/>
     <use xlink:href="#DejaVuSans-6c" x="291.210938"/>
     <use xlink:href="#DejaVuSans-20" x="318.994141"/>
     <use xlink:href="#DejaVuSans-46" x="350.78125"/>
     <use xlink:href="#DejaVuSans-65" x="402.800781"/>
     <use xlink:href="#DejaVuSans-61" x="464.324219"/>
     <use xlink:href="#DejaVuSans-74" x="525.603516"/>
     <use xlink:href="#DejaVuSans-75" x="564.8125"/>
     <use xlink:href="#DejaVuSans-72" x="628.191406"/>
     <use xlink:href="#DejaVuSans-65" x="667.054688"/>
     <use xlink:href="#DejaVuSans-20" x="728.578125"/>
     <use xlink:href="#DejaVuSans-49" x="760.365234"/>
     <use xlink:href="#DejaVuSans-6d" x="789.857422"/>
     <use xlink:href="#DejaVuSans-70" x="887.269531"/>
     <use xlink:href="#DejaVuSans-6f" x="950.746094"/>
     <use xlink:href="#DejaVuSans-72" x="1011.927734"/>
     <use xlink:href="#DejaVuSans-74" x="1053.041016"/>
     <use xlink:href="#DejaVuSans-61" x="1092.25"/>
     <use xlink:href="#DejaVuSans-6e" x="1153.529297"/>
     <use xlink:href="#DejaVuSans-63" x="1216.908203"/>
     <use xlink:href="#DejaVuSans-65" x="1271.888672"/>
    </g>
   </g>
  </g>
 </g>
 <defs>
  <clipPath id="pc776b6ba99">
   <rect x="108.675" y="10.8" width="456.525" height="1809.2"/>
  </clipPath>
 </defs>
</svg>
